<svg width="796" height="589" viewBox="0 0 796 589" fill="none" xmlns="http://www.w3.org/2000/svg">
<path d="M781.606 161.403C784.494 172.375 790.558 178.871 795.467 182.481C787.959 192.586 780.451 202.692 772.798 212.797C764.568 206.59 751.14 193.452 745.22 171.22C731.359 189.843 717.209 208.322 702.914 226.656C686.598 247.589 670.138 268.522 653.389 289.022C636.64 309.666 619.602 330.021 602.276 350.232C584.949 370.443 567.334 390.365 549.141 409.999C531.092 429.632 512.466 448.833 493.262 467.601C474.059 486.368 454.278 504.558 433.197 521.881C412.116 539.061 390.025 555.518 364.901 568.944C352.339 575.585 338.911 581.504 323.75 585.258C316.098 586.99 308.012 588.145 299.493 588.145C295.161 588.145 290.83 587.567 286.354 586.845C281.878 585.979 277.546 584.68 273.214 582.948C268.883 581.071 264.84 578.906 261.086 576.307C257.62 573.708 254.155 571.254 251.123 567.934C247.946 565.046 245.203 561.437 242.46 557.972C241.305 556.096 240.005 554.364 238.85 552.487C238.273 551.621 237.695 550.61 237.262 549.599L235.818 546.712C232.064 538.916 229.465 530.832 228.31 522.892L227.732 519.86L227.443 516.973C227.299 514.952 227.01 513.075 226.866 511.054C226.721 507.156 226.432 503.258 226.721 499.505C227.01 484.347 229.32 470.055 232.641 456.34C235.818 442.625 239.861 429.344 244.337 416.495C253.289 390.654 263.974 365.823 274.947 341.57C285.921 317.172 297.472 293.352 308.878 269.532C320.285 245.712 331.547 222.036 342.088 198.216C352.484 174.396 362.446 150.432 369.522 126.467C372.987 114.485 375.875 102.503 377.174 90.9535L377.463 86.7668L377.607 84.6014V82.5801C377.607 81.2808 377.752 79.8372 377.752 78.5379L377.607 74.6402C377.174 69.4431 376.308 64.679 374.864 60.6368C373.276 56.5946 371.254 53.2741 368.511 50.5311C367.789 49.8093 367.211 49.0877 366.345 48.5103L365.19 47.4996C364.757 47.2109 364.468 46.7777 363.89 46.4889C362.879 45.9115 361.869 45.1896 361.003 44.6121L357.826 43.0243C353.639 41.1476 349.018 39.704 344.109 38.9821C339.2 38.2603 334.002 38.2603 328.515 38.5491C317.686 39.4152 306.279 42.4467 295.017 46.4889C283.755 50.6755 272.492 56.0171 261.519 61.936C239.572 73.9183 218.347 88.4993 197.844 104.091C177.34 119.682 157.559 136.573 138.356 154.041C119.152 171.509 100.382 189.699 82.0442 208.322C72.9477 217.561 63.8512 227.089 54.8991 236.617C50.4231 241.381 46.0917 246.145 41.6156 251.054C37.284 255.818 32.8077 260.726 28.7648 265.49L0.320312 240.948C4.94074 235.607 9.27229 230.843 13.7483 225.79C18.2244 220.882 22.8448 215.828 27.3209 211.064C36.4173 201.248 45.6584 191.576 55.0436 182.047C73.8141 162.991 93.0179 144.368 112.944 126.323C132.869 108.277 153.372 90.8087 174.886 74.3512C196.4 57.8936 218.925 42.4469 243.326 29.0209C255.599 22.3802 268.305 16.3167 281.733 11.264C295.306 6.35556 309.6 2.31361 325.194 1.1587C332.991 0.58124 340.933 0.581063 349.163 1.88034C357.393 3.17963 365.623 5.48946 373.276 9.09857C375.153 10.1091 377.174 10.9755 379.051 11.986L384.538 15.4506C385.404 16.0281 386.415 16.7501 387.281 17.472L390.024 19.6373C391.901 20.9366 393.49 22.6688 395.078 24.4012C401.576 31.0419 406.629 39.271 409.661 47.6441C412.694 56.0172 413.993 64.3903 414.571 72.3303L414.859 78.2493C414.859 80.2704 414.86 82.1471 414.715 84.0238L414.571 86.9113L414.282 89.6542L413.849 95.2842C412.116 110.009 408.795 123.868 404.897 137.294C396.956 164.002 386.559 188.977 375.875 213.519C365.046 238.061 353.639 262.025 342.088 285.846C330.681 309.666 319.274 333.342 308.445 357.162C297.616 380.982 287.509 404.802 279.134 428.911C274.947 440.893 271.337 453.02 268.45 465.002C265.562 476.984 263.829 488.966 263.541 500.227C263.396 503.114 263.685 505.857 263.685 508.6C263.829 509.899 263.974 511.199 264.118 512.642L264.262 514.663L264.551 516.54C265.273 521.737 266.861 526.213 268.883 530.399L269.605 531.987C269.893 532.564 270.038 532.998 270.471 533.431C271.048 534.297 271.626 535.307 272.204 536.174C273.648 537.906 274.803 539.638 276.535 541.082C277.979 542.67 280 543.969 281.733 545.413C283.321 546.568 285.054 547.434 286.931 548.3C288.808 549.022 290.685 549.599 292.707 550.033C294.873 550.321 297.038 550.61 299.349 550.61C303.969 550.61 309.167 550.033 314.365 548.733C324.905 546.135 335.879 541.515 346.564 535.741C368.078 524.191 388.725 509.033 408.651 492.864C428.432 476.551 447.636 458.938 466.262 440.748C484.888 422.559 502.936 403.647 520.696 384.446C538.456 365.246 555.782 345.612 572.965 325.69C590.003 305.768 606.896 285.557 623.501 265.201C640.105 244.846 656.421 224.202 672.593 203.413C686.743 185.223 700.604 166.889 714.465 148.41C691.507 148.988 675.336 139.46 666.962 133.252C674.326 123.58 681.545 113.763 688.764 103.946C693.673 107.555 701.759 111.598 712.877 111.164C723.995 110.876 738.578 106.111 756.049 92.3968L785.504 113.185C778.863 135.273 778.718 150.432 781.606 161.403Z" fill="#FFC700"/>
</svg>
